<svg xmlns="http://www.w3.org/2000/svg" viewBox="0 0 128 128" width="128" height="128">
  <!-- Background circle -->
  <circle cx="64" cy="64" r="60" fill="#667eea" stroke="#5a6fd8" stroke-width="2"/>

  <!-- Network/proxy icon representation -->
  <g fill="white">
    <!-- Server representation -->
    <rect x="35" y="40" width="20" height="25" rx="2" opacity="0.9"/>
    <rect x="73" y="40" width="20" height="25" rx="2" opacity="0.9"/>

    <!-- Connection lines -->
    <path d="M55 52 L73 52" stroke="white" stroke-width="3" stroke-linecap="round"/>
    <path d="M55 57 L73 57" stroke="white" stroke-width="2" stroke-linecap="round" opacity="0.7"/>

    <!-- Shield/security symbol -->
    <path d="M64 70 L58 75 L64 85 L70 75 Z" fill="white" opacity="0.9"/>
    <circle cx="64" cy="78" r="3" fill="#667eea"/>

    <!-- JWT token representation -->
    <rect x="40" y="95" width="48" height="8" rx="4" fill="white" opacity="0.8"/>
    <rect x="45" y="98" width="6" height="2" rx="1" fill="#667eea"/>
    <rect x="55" y="98" width="12" height="2" rx="1" fill="#667eea"/>
    <rect x="72" y="98" width="8" height="2" rx="1" fill="#667eea"/>
  </g>

  <!-- Small indicators -->
  <circle cx="100" cy="28" r="8" fill="#28a745" stroke="white" stroke-width="2"/>
  <circle cx="98" cy="26" r="2" fill="white"/>
</svg>